<mxfile host="www.draw.io" modified="2020-02-27T14:10:32.239Z" agent="Mozilla/5.0 (Windows NT 6.1; Win64; x64) AppleWebKit/537.36 (KHTML, like Gecko) Chrome/56.0.2924.87 Safari/537.36" etag="tofcdjiownnIJKlHJYqb" version="12.7.8" type="github">
  <diagram name="Page-1" id="aaaa8250-4180-3840-79b5-4cada1eebb92">
    <mxGraphModel dx="1240" dy="640" grid="1" gridSize="10" guides="1" tooltips="1" connect="1" arrows="1" fold="1" page="1" pageScale="1" pageWidth="1169" pageHeight="827" background="none" math="0" shadow="0">
      <root>
        <mxCell id="0" />
        <mxCell id="1" parent="0" />
        <mxCell id="DCsR4V7gawOkk2j5z2FD-55" value="" style="verticalLabelPosition=bottom;html=1;verticalAlign=top;strokeWidth=1;align=center;outlineConnect=0;dashed=0;outlineConnect=0;shape=mxgraph.aws3d.flatEdge;fillColor=#000000;aspect=fixed;fontFamily=Georgia;fontSize=20;fontColor=#6666FF;flipH=1;" vertex="1" parent="1">
          <mxGeometry x="589.18" y="461.5" width="190.48" height="108.5" as="geometry" />
        </mxCell>
        <mxCell id="DCsR4V7gawOkk2j5z2FD-89" value="JavaScript&#xa;" style="verticalLabelPosition=top;verticalAlign=bottom;strokeWidth=1;align=center;outlineConnect=0;dashed=0;outlineConnect=0;shape=mxgraph.aws3d.rds;fillColor=#fff2cc;strokeColor=#d6b656;aspect=fixed;labelBackgroundColor=none;fontFamily=Georgia;fontSize=20;fontColor=#6666FF;labelPosition=center;spacingTop=0;spacingBottom=-16;" vertex="1" parent="1">
          <mxGeometry x="491.26" y="279" width="119.99" height="129.74" as="geometry" />
        </mxCell>
        <mxCell id="DCsR4V7gawOkk2j5z2FD-31" value="" style="verticalLabelPosition=bottom;html=1;verticalAlign=top;strokeWidth=1;align=center;outlineConnect=0;dashed=0;outlineConnect=0;shape=mxgraph.aws3d.flatDoubleEdge;fillColor=#000000;aspect=fixed;fontFamily=Georgia;fontSize=20;fontColor=#6666FF;direction=west;flipH=1;" vertex="1" parent="1">
          <mxGeometry x="609.27" y="208" width="266" height="151.52" as="geometry" />
        </mxCell>
        <mxCell id="DCsR4V7gawOkk2j5z2FD-91" value="React" style="verticalLabelPosition=middle;verticalAlign=middle;strokeWidth=1;align=left;outlineConnect=0;dashed=0;outlineConnect=0;shape=mxgraph.aws3d.rds;fillColor=#fff2cc;strokeColor=#d6b656;aspect=fixed;labelBackgroundColor=none;fontFamily=Georgia;fontSize=20;fontColor=#6666FF;spacing=0;spacingTop=0;spacingBottom=0;spacingRight=0;labelPosition=right;fontStyle=1;spacingLeft=10;" vertex="1" parent="1">
          <mxGeometry x="560" y="320" width="117.91" height="127.5" as="geometry" />
        </mxCell>
        <mxCell id="DCsR4V7gawOkk2j5z2FD-57" value="" style="verticalLabelPosition=bottom;html=1;verticalAlign=top;strokeWidth=1;align=center;outlineConnect=0;dashed=0;outlineConnect=0;shape=mxgraph.aws3d.flatDoubleEdge;fillColor=#000000;aspect=fixed;fontFamily=Georgia;fontSize=20;fontColor=#6666FF;direction=west;flipH=1;" vertex="1" parent="1">
          <mxGeometry x="204" y="432" width="294.98" height="168.03" as="geometry" />
        </mxCell>
        <mxCell id="DCsR4V7gawOkk2j5z2FD-80" value="" style="verticalLabelPosition=bottom;html=1;verticalAlign=top;strokeWidth=1;align=center;outlineConnect=0;dashed=0;outlineConnect=0;shape=mxgraph.aws3d.dashedArrowlessEdge;fillColor=#000000;aspect=fixed;shadow=0;labelBackgroundColor=none;fontFamily=Georgia;fontSize=20;fontColor=#6666FF;" vertex="1" parent="1">
          <mxGeometry x="370" y="274.76" width="130" height="74.05" as="geometry" />
        </mxCell>
        <mxCell id="DCsR4V7gawOkk2j5z2FD-88" value="Router" style="verticalLabelPosition=middle;verticalAlign=middle;strokeWidth=1;align=right;outlineConnect=0;dashed=0;outlineConnect=0;shape=mxgraph.aws3d.rds;fillColor=#fff2cc;strokeColor=#d6b656;aspect=fixed;labelBackgroundColor=none;fontFamily=Georgia;fontSize=20;fontColor=#6666FF;spacing=0;spacingTop=0;spacingBottom=70;spacingRight=0;labelPosition=left;" vertex="1" parent="1">
          <mxGeometry x="426" y="320.19" width="117.74" height="127.31" as="geometry" />
        </mxCell>
        <mxCell id="DCsR4V7gawOkk2j5z2FD-86" value="" style="verticalLabelPosition=bottom;html=1;verticalAlign=top;strokeWidth=1;align=center;outlineConnect=0;dashed=0;outlineConnect=0;shape=mxgraph.aws3d.dashedArrowlessEdge;fillColor=#000000;aspect=fixed;shadow=0;labelBackgroundColor=none;fontFamily=Georgia;fontSize=20;fontColor=#6666FF;flipH=1;" vertex="1" parent="1">
          <mxGeometry x="950" y="177.4" width="155" height="88.3" as="geometry" />
        </mxCell>
        <mxCell id="DCsR4V7gawOkk2j5z2FD-85" value="" style="verticalLabelPosition=bottom;html=1;verticalAlign=top;strokeWidth=1;align=center;outlineConnect=0;dashed=0;outlineConnect=0;shape=mxgraph.aws3d.dashedArrowlessEdge;fillColor=#000000;aspect=fixed;shadow=0;labelBackgroundColor=none;fontFamily=Georgia;fontSize=20;fontColor=#6666FF;flipH=1;" vertex="1" parent="1">
          <mxGeometry x="870" y="134.91" width="125" height="71.21" as="geometry" />
        </mxCell>
        <mxCell id="DCsR4V7gawOkk2j5z2FD-84" value="" style="verticalLabelPosition=bottom;html=1;verticalAlign=top;strokeWidth=1;align=center;outlineConnect=0;dashed=0;outlineConnect=0;shape=mxgraph.aws3d.dashedArrowlessEdge;fillColor=#000000;aspect=fixed;shadow=0;labelBackgroundColor=none;fontFamily=Georgia;fontSize=20;fontColor=#6666FF;" vertex="1" parent="1">
          <mxGeometry x="770" y="157.97" width="51.6" height="29.39" as="geometry" />
        </mxCell>
        <mxCell id="DCsR4V7gawOkk2j5z2FD-82" value="" style="verticalLabelPosition=bottom;html=1;verticalAlign=top;strokeWidth=1;align=center;outlineConnect=0;dashed=0;outlineConnect=0;shape=mxgraph.aws3d.dashedArrowlessEdge;fillColor=#000000;aspect=fixed;shadow=0;labelBackgroundColor=none;fontFamily=Georgia;fontSize=20;fontColor=#6666FF;" vertex="1" parent="1">
          <mxGeometry x="585" y="191.82" width="130" height="74.05" as="geometry" />
        </mxCell>
        <mxCell id="DCsR4V7gawOkk2j5z2FD-69" value="" style="verticalLabelPosition=bottom;html=1;verticalAlign=top;strokeWidth=1;align=center;outlineConnect=0;dashed=0;outlineConnect=0;shape=mxgraph.aws3d.flatEdge;fillColor=#000000;aspect=fixed;fontFamily=Georgia;fontSize=20;fontColor=#6666FF;flipH=1;" vertex="1" parent="1">
          <mxGeometry x="662" y="421" width="186.09" height="106" as="geometry" />
        </mxCell>
        <mxCell id="DCsR4V7gawOkk2j5z2FD-68" value="Side API&#xa;(YouTube, Map, etc.),&#xa; plugins" style="verticalLabelPosition=middle;verticalAlign=middle;strokeWidth=1;align=left;outlineConnect=0;dashed=0;outlineConnect=0;shape=mxgraph.aws3d.elasticMapReduce;fillColor=#9AC7BF;strokeColor=#5E5E5E;aspect=fixed;shadow=0;labelBackgroundColor=none;fontFamily=Georgia;fontSize=20;fontColor=#6666FF;labelPosition=right;spacingTop=0;spacingLeft=10;" vertex="1" parent="1">
          <mxGeometry x="812.5" y="430" width="127.16" height="137.5" as="geometry" />
        </mxCell>
        <mxCell id="DCsR4V7gawOkk2j5z2FD-15" value="Authors Data" style="verticalLabelPosition=top;aspect=fixed;verticalAlign=bottom;strokeColor=none;align=center;outlineConnect=0;shape=mxgraph.citrix.document;fillColor=#99FFFF;fontFamily=Georgia;fontSize=20;labelPosition=center;fontColor=#6666FF;" vertex="1" parent="1">
          <mxGeometry x="854" y="30" width="47" height="72" as="geometry" />
        </mxCell>
        <mxCell id="DCsR4V7gawOkk2j5z2FD-16" value="Developers&#xa;Data" style="verticalLabelPosition=top;aspect=fixed;verticalAlign=bottom;strokeColor=none;align=center;outlineConnect=0;shape=mxgraph.citrix.document;fillColor=#99FFFF;fontFamily=Georgia;fontSize=20;horizontal=1;labelPosition=center;fontColor=#6666FF;" vertex="1" parent="1">
          <mxGeometry x="969" y="71" width="47" height="72" as="geometry" />
        </mxCell>
        <mxCell id="DCsR4V7gawOkk2j5z2FD-18" value="Interface&#xa; Content" style="verticalLabelPosition=top;aspect=fixed;verticalAlign=bottom;strokeColor=none;align=center;outlineConnect=0;shape=mxgraph.citrix.document;fillColor=#99FFFF;fontFamily=Georgia;fontSize=20;horizontal=1;labelPosition=center;fontColor=#6666FF;" vertex="1" parent="1">
          <mxGeometry x="1079" y="114" width="47" height="72" as="geometry" />
        </mxCell>
        <mxCell id="DCsR4V7gawOkk2j5z2FD-24" value="Contentfull CMS" style="verticalLabelPosition=middle;verticalAlign=middle;strokeWidth=1;align=right;outlineConnect=0;dashed=0;outlineConnect=0;shape=mxgraph.aws3d.dynamoDb;fillColor=#A9C4EB;strokeColor=#5E5E5E;aspect=fixed;fontFamily=Georgia;fontSize=20;labelPosition=left;spacingRight=5;fontStyle=1;fontColor=#6666FF;" vertex="1" parent="1">
          <mxGeometry x="812.5" y="128" width="101.48" height="117.42" as="geometry" />
        </mxCell>
        <mxCell id="DCsR4V7gawOkk2j5z2FD-37" value="GraphQL" style="verticalLabelPosition=bottom;verticalAlign=top;strokeWidth=1;align=center;outlineConnect=0;dashed=0;outlineConnect=0;shape=mxgraph.aws3d.elasticLoadBalancing;fillColor=#FF9999;strokeColor=#5E5E5E;aspect=fixed;fontFamily=Georgia;fontSize=20;fontColor=#6666FF;flipH=1;flipV=1;rotation=0;direction=west;labelPosition=right;spacingRight=40;fontStyle=1" vertex="1" parent="1">
          <mxGeometry x="696.27" y="228" width="92" height="88.17" as="geometry" />
        </mxCell>
        <mxCell id="DCsR4V7gawOkk2j5z2FD-43" value="" style="verticalLabelPosition=bottom;html=1;verticalAlign=top;strokeWidth=1;align=center;outlineConnect=0;dashed=0;outlineConnect=0;shape=mxgraph.aws3d.arrowhead;aspect=fixed;fillColor=#A9C4EB;fontFamily=Georgia;fontSize=20;fontColor=#6666FF;flipH=0;flipV=1;" vertex="1" parent="1">
          <mxGeometry x="791.44" y="233.86" width="40.45" height="23.42" as="geometry" />
        </mxCell>
        <mxCell id="DCsR4V7gawOkk2j5z2FD-44" value="" style="verticalLabelPosition=bottom;html=1;verticalAlign=top;strokeWidth=1;align=center;outlineConnect=0;dashed=0;outlineConnect=0;shape=mxgraph.aws3d.arrowhead;aspect=fixed;fillColor=#A9C4EB;fontFamily=Georgia;fontSize=20;fontColor=#6666FF;flipH=0;flipV=1;" vertex="1" parent="1">
          <mxGeometry x="662" y="308.58000000000004" width="40.45" height="23.42" as="geometry" />
        </mxCell>
        <mxCell id="DCsR4V7gawOkk2j5z2FD-47" value="I18next" style="verticalLabelPosition=top;verticalAlign=bottom;strokeWidth=1;align=center;outlineConnect=0;dashed=0;outlineConnect=0;shape=mxgraph.aws3d.glacier;fillColor=#66FF66;strokeColor=#5E5E5E;aspect=fixed;fontFamily=Georgia;fontSize=20;fontColor=#6666FF;labelPosition=center;fontStyle=1" vertex="1" parent="1">
          <mxGeometry x="506" y="100.73000000000005" width="91" height="96.53" as="geometry" />
        </mxCell>
        <mxCell id="DCsR4V7gawOkk2j5z2FD-56" value="CSS, SCSS, styleguidelist" style="verticalLabelPosition=bottom;verticalAlign=top;strokeWidth=1;align=center;outlineConnect=0;dashed=0;outlineConnect=0;shape=mxgraph.aws3d.route53;fillColor=#e1d5e7;strokeColor=#9673a6;aspect=fixed;fontFamily=Georgia;fontSize=20;flipH=1;fontColor=#6666FF;" vertex="1" parent="1">
          <mxGeometry x="750.1700000000001" y="490" width="117.17" height="134.4" as="geometry" />
        </mxCell>
        <mxCell id="DCsR4V7gawOkk2j5z2FD-58" value="Netlify" style="verticalLabelPosition=middle;verticalAlign=middle;strokeWidth=1;align=right;outlineConnect=0;dashed=0;outlineConnect=0;shape=mxgraph.aws3d.cloudfront;fillColor=#A9C4EB;strokeColor=#5E5E5E;aspect=fixed;fontFamily=Georgia;fontSize=20;fontColor=#6666FF;labelPosition=left;fontStyle=1" vertex="1" parent="1">
          <mxGeometry x="370" y="380" width="78.55" height="128.51" as="geometry" />
        </mxCell>
        <mxCell id="DCsR4V7gawOkk2j5z2FD-60" value="DNS" style="verticalLabelPosition=bottom;aspect=fixed;verticalAlign=top;strokeColor=none;align=left;outlineConnect=0;shape=mxgraph.citrix.chassis;fillColor=#A9C4EB;fontFamily=Georgia;fontSize=20;fontColor=#6666FF;labelPosition=right;" vertex="1" parent="1">
          <mxGeometry x="270" y="458" width="84.82" height="109.5" as="geometry" />
        </mxCell>
        <mxCell id="DCsR4V7gawOkk2j5z2FD-65" value="" style="image;html=1;labelBackgroundColor=#ffffff;image=img/lib/clip_art/computers/Network_128x128.png;fillColor=#A9C4EB;fontFamily=Georgia;fontSize=20;fontColor=#6666FF;align=left;direction=east;flipH=1;" vertex="1" parent="1">
          <mxGeometry x="120" y="560" width="140" height="100" as="geometry" />
        </mxCell>
        <mxCell id="DCsR4V7gawOkk2j5z2FD-66" value="" style="image;html=1;labelBackgroundColor=#ffffff;image=img/lib/clip_art/computers/iPad_128x128.png;fillColor=#A9C4EB;fontFamily=Georgia;fontSize=20;fontColor=#6666FF;align=left;flipV=0;flipH=1;" vertex="1" parent="1">
          <mxGeometry x="90" y="540" width="50" height="68" as="geometry" />
        </mxCell>
        <mxCell id="DCsR4V7gawOkk2j5z2FD-67" value="" style="image;html=1;labelBackgroundColor=#ffffff;image=img/lib/clip_art/people/Suit_Man_Blue_128x128.png;fillColor=#A9C4EB;fontFamily=Georgia;fontSize=20;fontColor=#6666FF;align=left;" vertex="1" parent="1">
          <mxGeometry x="70" y="640" width="90" height="100" as="geometry" />
        </mxCell>
        <mxCell id="DCsR4V7gawOkk2j5z2FD-52" value="Language" style="text;align=center;verticalAlign=middle;resizable=0;points=[];autosize=1;fontSize=20;fontFamily=Georgia;fontColor=#6666FF;rotation=330;strokeColor=none;shadow=0;labelBackgroundColor=none;" vertex="1" parent="1">
          <mxGeometry x="370" y="198" width="100" height="30" as="geometry" />
        </mxCell>
        <mxCell id="DCsR4V7gawOkk2j5z2FD-75" value="" style="image;html=1;labelBackgroundColor=#ffffff;image=img/lib/clip_art/telecommunication/iPhone_128x128.png;shadow=0;strokeColor=#000000;fillColor=#9AC7BF;fontFamily=Georgia;fontSize=20;fontColor=#6666FF;align=left;flipV=0;flipH=1;" vertex="1" parent="1">
          <mxGeometry x="230" y="630" width="50" height="60" as="geometry" />
        </mxCell>
        <mxCell id="DCsR4V7gawOkk2j5z2FD-76" value="" style="image;html=1;labelBackgroundColor=#ffffff;image=img/lib/clip_art/people/Suit_Woman_Blue_128x128.png;shadow=0;strokeColor=#000000;fillColor=#9AC7BF;fontFamily=Georgia;fontSize=20;fontColor=#6666FF;align=left;" vertex="1" parent="1">
          <mxGeometry x="160" y="690" width="80" height="80" as="geometry" />
        </mxCell>
        <mxCell id="DCsR4V7gawOkk2j5z2FD-77" value="" style="image;html=1;labelBackgroundColor=#ffffff;image=img/lib/clip_art/people/Suit_Man_Green_128x128.png;shadow=0;strokeColor=#000000;fillColor=#9AC7BF;fontFamily=Georgia;fontSize=20;fontColor=#6666FF;align=left;" vertex="1" parent="1">
          <mxGeometry x="10" y="590" width="80" height="80" as="geometry" />
        </mxCell>
        <mxCell id="DCsR4V7gawOkk2j5z2FD-81" value="" style="verticalLabelPosition=bottom;html=1;verticalAlign=top;strokeWidth=1;align=center;outlineConnect=0;dashed=0;outlineConnect=0;shape=mxgraph.aws3d.dashedEdge;fillColor=#000000;aspect=fixed;shadow=0;labelBackgroundColor=none;fontFamily=Georgia;fontSize=20;fontColor=#6666FF;" vertex="1" parent="1">
          <mxGeometry x="370" y="186" width="150" height="85.44" as="geometry" />
        </mxCell>
        <mxCell id="DCsR4V7gawOkk2j5z2FD-83" value="" style="verticalLabelPosition=bottom;html=1;verticalAlign=top;strokeWidth=1;align=center;outlineConnect=0;dashed=0;outlineConnect=0;shape=mxgraph.aws3d.dashedArrowlessEdge;fillColor=#000000;aspect=fixed;shadow=0;labelBackgroundColor=none;fontFamily=Georgia;fontSize=20;fontColor=#6666FF;flipH=1;" vertex="1" parent="1">
          <mxGeometry x="770" y="98" width="105.27" height="59.97" as="geometry" />
        </mxCell>
        <mxCell id="DCsR4V7gawOkk2j5z2FD-87" value="" style="verticalLabelPosition=bottom;html=1;verticalAlign=top;strokeWidth=1;align=center;outlineConnect=0;dashed=0;outlineConnect=0;shape=mxgraph.aws3d.dashedEdge;fillColor=#000000;aspect=fixed;shadow=0;labelBackgroundColor=none;fontFamily=Georgia;fontSize=20;fontColor=#6666FF;flipV=0;flipH=1;" vertex="1" parent="1">
          <mxGeometry x="898" y="235.71" width="50" height="28.48" as="geometry" />
        </mxCell>
        <mxCell id="DCsR4V7gawOkk2j5z2FD-90" value="GatsbyJS" style="verticalLabelPosition=bottom;verticalAlign=top;strokeWidth=1;align=center;outlineConnect=0;dashed=0;outlineConnect=0;shape=mxgraph.aws3d.rds;fillColor=#fff2cc;strokeColor=#d6b656;aspect=fixed;labelBackgroundColor=none;fontFamily=Georgia;fontSize=20;fontColor=#6666FF;spacing=0;spacingTop=0;spacingBottom=70;spacingRight=0;labelPosition=center;fontStyle=1" vertex="1" parent="1">
          <mxGeometry x="492.76" y="360" width="113.75" height="123" as="geometry" />
        </mxCell>
      </root>
    </mxGraphModel>
  </diagram>
</mxfile>
